<svg xmlns="http://www.w3.org/2000/svg" version="1.1" xmlns:xlink="http://www.w3.org/1999/xlink" xmlns:svgjs="http://svgjs.dev/svgjs" viewBox="0 0 800 800" opacity="0.23" width="800" height="800"><g stroke-width="2" stroke="hsl(261, 60%, 38%)" fill="none"><rect width="9.736842105263158" height="9.736842105263158" x="-4.868421052631579" y="-4.868421052631579" transform="rotate(45, 0, 0)"></rect><rect width="9.736842105263158" height="9.736842105263158" x="39.57602339181287" y="-4.868421052631579" transform="rotate(45, 44.44444444444444, 0)"></rect><rect width="9.736842105263158" height="9.736842105263158" x="84.02046783625731" y="-4.868421052631579" transform="rotate(45, 88.88888888888889, 0)"></rect><rect width="9.736842105263158" height="9.736842105263158" x="128.46491228070172" y="-4.868421052631579" transform="rotate(45, 133.33333333333331, 0)"></rect><rect width="9.736842105263158" height="9.736842105263158" x="172.90935672514618" y="-4.868421052631579" transform="rotate(45, 177.77777777777777, 0)"></rect><rect width="9.736842105263158" height="9.736842105263158" x="217.35380116959064" y="-4.868421052631579" transform="rotate(45, 222.22222222222223, 0)"></rect><rect width="9.736842105263158" height="9.736842105263158" x="261.7982456140351" y="-4.868421052631579" transform="rotate(45, 266.6666666666667, 0)"></rect><rect width="9.736842105263158" height="9.736842105263158" x="306.2426900584796" y="-4.868421052631579" transform="rotate(45, 311.11111111111114, 0)"></rect><rect width="9.736842105263158" height="9.736842105263158" x="350.68713450292404" y="-4.868421052631579" transform="rotate(45, 355.5555555555556, 0)"></rect><rect width="9.736842105263158" height="9.736842105263158" x="395.1315789473685" y="-4.868421052631579" transform="rotate(45, 400.00000000000006, 0)"></rect><rect width="9.736842105263158" height="9.736842105263158" x="439.57602339181295" y="-4.868421052631579" transform="rotate(45, 444.4444444444445, 0)"></rect><rect width="9.736842105263158" height="9.736842105263158" x="484.0204678362574" y="-4.868421052631579" transform="rotate(45, 488.88888888888897, 0)"></rect><rect width="9.736842105263158" height="9.736842105263158" x="528.4649122807018" y="-4.868421052631579" transform="rotate(45, 533.3333333333334, 0)"></rect><rect width="9.736842105263158" height="9.736842105263158" x="572.9093567251463" y="-4.868421052631579" transform="rotate(45, 577.7777777777778, 0)"></rect><rect width="9.736842105263158" height="9.736842105263158" x="617.3538011695907" y="-4.868421052631579" transform="rotate(45, 622.2222222222223, 0)"></rect><rect width="9.736842105263158" height="9.736842105263158" x="661.7982456140352" y="-4.868421052631579" transform="rotate(45, 666.6666666666667, 0)"></rect><rect width="9.736842105263158" height="9.736842105263158" x="706.2426900584796" y="-4.868421052631579" transform="rotate(45, 711.1111111111112, 0)"></rect><rect width="9.736842105263158" height="9.736842105263158" x="750.6871345029241" y="-4.868421052631579" transform="rotate(45, 755.5555555555557, 0)"></rect><rect width="9.736842105263158" height="9.736842105263158" x="795.1315789473686" y="-4.868421052631579" transform="rotate(45, 800.0000000000001, 0)"></rect><rect width="9.736842105263158" height="9.736842105263158" x="-4.868421052631579" y="75.13157894736842" transform="rotate(45, 0, 80)"></rect><rect width="9.736842105263158" height="9.736842105263158" x="39.57602339181287" y="75.13157894736842" transform="rotate(45, 44.44444444444444, 80)"></rect><rect width="9.736842105263158" height="9.736842105263158" x="84.02046783625731" y="75.13157894736842" transform="rotate(45, 88.88888888888889, 80)"></rect><rect width="9.736842105263158" height="9.736842105263158" x="128.46491228070172" y="75.13157894736842" fill="hsl(261, 60%, 38%)" stroke="none" transform="rotate(45, 133.33333333333331, 80)"></rect><rect width="9.736842105263158" height="9.736842105263158" x="172.90935672514618" y="75.13157894736842" transform="rotate(45, 177.77777777777777, 80)"></rect><rect width="9.736842105263158" height="9.736842105263158" x="217.35380116959064" y="75.13157894736842" transform="rotate(45, 222.22222222222223, 80)"></rect><rect width="9.736842105263158" height="9.736842105263158" x="261.7982456140351" y="75.13157894736842" transform="rotate(45, 266.6666666666667, 80)"></rect><rect width="9.736842105263158" height="9.736842105263158" x="306.2426900584796" y="75.13157894736842" fill="hsl(261, 60%, 38%)" stroke="none" transform="rotate(45, 311.11111111111114, 80)"></rect><rect width="9.736842105263158" height="9.736842105263158" x="350.68713450292404" y="75.13157894736842" fill="hsl(261, 60%, 38%)" stroke="none" transform="rotate(45, 355.5555555555556, 80)"></rect><rect width="9.736842105263158" height="9.736842105263158" x="395.1315789473685" y="75.13157894736842" fill="hsl(261, 60%, 38%)" stroke="none" transform="rotate(45, 400.00000000000006, 80)"></rect><rect width="9.736842105263158" height="9.736842105263158" x="439.57602339181295" y="75.13157894736842" fill="hsl(261, 60%, 38%)" stroke="none" transform="rotate(45, 444.4444444444445, 80)"></rect><rect width="9.736842105263158" height="9.736842105263158" x="484.0204678362574" y="75.13157894736842" transform="rotate(45, 488.88888888888897, 80)"></rect><rect width="9.736842105263158" height="9.736842105263158" x="528.4649122807018" y="75.13157894736842" transform="rotate(45, 533.3333333333334, 80)"></rect><rect width="9.736842105263158" height="9.736842105263158" x="572.9093567251463" y="75.13157894736842" transform="rotate(45, 577.7777777777778, 80)"></rect><rect width="9.736842105263158" height="9.736842105263158" x="617.3538011695907" y="75.13157894736842" transform="rotate(45, 622.2222222222223, 80)"></rect><rect width="9.736842105263158" height="9.736842105263158" x="661.7982456140352" y="75.13157894736842" transform="rotate(45, 666.6666666666667, 80)"></rect><rect width="9.736842105263158" height="9.736842105263158" x="706.2426900584796" y="75.13157894736842" transform="rotate(45, 711.1111111111112, 80)"></rect><rect width="9.736842105263158" height="9.736842105263158" x="750.6871345029241" y="75.13157894736842" fill="hsl(261, 60%, 38%)" stroke="none" transform="rotate(45, 755.5555555555557, 80)"></rect><rect width="9.736842105263158" height="9.736842105263158" x="795.1315789473686" y="75.13157894736842" transform="rotate(45, 800.0000000000001, 80)"></rect><rect width="9.736842105263158" height="9.736842105263158" x="-4.868421052631579" y="155.1315789473684" transform="rotate(45, 0, 160)"></rect><rect width="9.736842105263158" height="9.736842105263158" x="39.57602339181287" y="155.1315789473684" transform="rotate(45, 44.44444444444444, 160)"></rect><rect width="9.736842105263158" height="9.736842105263158" x="84.02046783625731" y="155.1315789473684" transform="rotate(45, 88.88888888888889, 160)"></rect><rect width="9.736842105263158" height="9.736842105263158" x="128.46491228070172" y="155.1315789473684" transform="rotate(45, 133.33333333333331, 160)"></rect><rect width="9.736842105263158" height="9.736842105263158" x="172.90935672514618" y="155.1315789473684" fill="hsl(261, 60%, 38%)" stroke="none" transform="rotate(45, 177.77777777777777, 160)"></rect><rect width="9.736842105263158" height="9.736842105263158" x="217.35380116959064" y="155.1315789473684" transform="rotate(45, 222.22222222222223, 160)"></rect><rect width="9.736842105263158" height="9.736842105263158" x="261.7982456140351" y="155.1315789473684" transform="rotate(45, 266.6666666666667, 160)"></rect><rect width="9.736842105263158" height="9.736842105263158" x="306.2426900584796" y="155.1315789473684" transform="rotate(45, 311.11111111111114, 160)"></rect><rect width="9.736842105263158" height="9.736842105263158" x="350.68713450292404" y="155.1315789473684" fill="hsl(261, 60%, 38%)" stroke="none" transform="rotate(45, 355.5555555555556, 160)"></rect><rect width="9.736842105263158" height="9.736842105263158" x="395.1315789473685" y="155.1315789473684" transform="rotate(45, 400.00000000000006, 160)"></rect><rect width="9.736842105263158" height="9.736842105263158" x="439.57602339181295" y="155.1315789473684" transform="rotate(45, 444.4444444444445, 160)"></rect><rect width="9.736842105263158" height="9.736842105263158" x="484.0204678362574" y="155.1315789473684" transform="rotate(45, 488.88888888888897, 160)"></rect><rect width="9.736842105263158" height="9.736842105263158" x="528.4649122807018" y="155.1315789473684" transform="rotate(45, 533.3333333333334, 160)"></rect><rect width="9.736842105263158" height="9.736842105263158" x="572.9093567251463" y="155.1315789473684" fill="hsl(261, 60%, 38%)" stroke="none" transform="rotate(45, 577.7777777777778, 160)"></rect><rect width="9.736842105263158" height="9.736842105263158" x="617.3538011695907" y="155.1315789473684" transform="rotate(45, 622.2222222222223, 160)"></rect><rect width="9.736842105263158" height="9.736842105263158" x="661.7982456140352" y="155.1315789473684" transform="rotate(45, 666.6666666666667, 160)"></rect><rect width="9.736842105263158" height="9.736842105263158" x="706.2426900584796" y="155.1315789473684" fill="hsl(261, 60%, 38%)" stroke="none" transform="rotate(45, 711.1111111111112, 160)"></rect><rect width="9.736842105263158" height="9.736842105263158" x="750.6871345029241" y="155.1315789473684" transform="rotate(45, 755.5555555555557, 160)"></rect><rect width="9.736842105263158" height="9.736842105263158" x="795.1315789473686" y="155.1315789473684" transform="rotate(45, 800.0000000000001, 160)"></rect><rect width="9.736842105263158" height="9.736842105263158" x="-4.868421052631579" y="235.1315789473684" transform="rotate(45, 0, 240)"></rect><rect width="9.736842105263158" height="9.736842105263158" x="39.57602339181287" y="235.1315789473684" fill="hsl(261, 60%, 38%)" stroke="none" transform="rotate(45, 44.44444444444444, 240)"></rect><rect width="9.736842105263158" height="9.736842105263158" x="84.02046783625731" y="235.1315789473684" fill="hsl(261, 60%, 38%)" stroke="none" transform="rotate(45, 88.88888888888889, 240)"></rect><rect width="9.736842105263158" height="9.736842105263158" x="128.46491228070172" y="235.1315789473684" fill="hsl(261, 60%, 38%)" stroke="none" transform="rotate(45, 133.33333333333331, 240)"></rect><rect width="9.736842105263158" height="9.736842105263158" x="172.90935672514618" y="235.1315789473684" fill="hsl(261, 60%, 38%)" stroke="none" transform="rotate(45, 177.77777777777777, 240)"></rect><rect width="9.736842105263158" height="9.736842105263158" x="217.35380116959064" y="235.1315789473684" transform="rotate(45, 222.22222222222223, 240)"></rect><rect width="9.736842105263158" height="9.736842105263158" x="261.7982456140351" y="235.1315789473684" transform="rotate(45, 266.6666666666667, 240)"></rect><rect width="9.736842105263158" height="9.736842105263158" x="306.2426900584796" y="235.1315789473684" transform="rotate(45, 311.11111111111114, 240)"></rect><rect width="9.736842105263158" height="9.736842105263158" x="350.68713450292404" y="235.1315789473684" transform="rotate(45, 355.5555555555556, 240)"></rect><rect width="9.736842105263158" height="9.736842105263158" x="395.1315789473685" y="235.1315789473684" transform="rotate(45, 400.00000000000006, 240)"></rect><rect width="9.736842105263158" height="9.736842105263158" x="439.57602339181295" y="235.1315789473684" transform="rotate(45, 444.4444444444445, 240)"></rect><rect width="9.736842105263158" height="9.736842105263158" x="484.0204678362574" y="235.1315789473684" fill="hsl(261, 60%, 38%)" stroke="none" transform="rotate(45, 488.88888888888897, 240)"></rect><rect width="9.736842105263158" height="9.736842105263158" x="528.4649122807018" y="235.1315789473684" transform="rotate(45, 533.3333333333334, 240)"></rect><rect width="9.736842105263158" height="9.736842105263158" x="572.9093567251463" y="235.1315789473684" transform="rotate(45, 577.7777777777778, 240)"></rect><rect width="9.736842105263158" height="9.736842105263158" x="617.3538011695907" y="235.1315789473684" fill="hsl(261, 60%, 38%)" stroke="none" transform="rotate(45, 622.2222222222223, 240)"></rect><rect width="9.736842105263158" height="9.736842105263158" x="661.7982456140352" y="235.1315789473684" transform="rotate(45, 666.6666666666667, 240)"></rect><rect width="9.736842105263158" height="9.736842105263158" x="706.2426900584796" y="235.1315789473684" transform="rotate(45, 711.1111111111112, 240)"></rect><rect width="9.736842105263158" height="9.736842105263158" x="750.6871345029241" y="235.1315789473684" transform="rotate(45, 755.5555555555557, 240)"></rect><rect width="9.736842105263158" height="9.736842105263158" x="795.1315789473686" y="235.1315789473684" transform="rotate(45, 800.0000000000001, 240)"></rect><rect width="9.736842105263158" height="9.736842105263158" x="-4.868421052631579" y="315.13157894736844" transform="rotate(45, 0, 320)"></rect><rect width="9.736842105263158" height="9.736842105263158" x="39.57602339181287" y="315.13157894736844" fill="hsl(261, 60%, 38%)" stroke="none" transform="rotate(45, 44.44444444444444, 320)"></rect><rect width="9.736842105263158" height="9.736842105263158" x="84.02046783625731" y="315.13157894736844" transform="rotate(45, 88.88888888888889, 320)"></rect><rect width="9.736842105263158" height="9.736842105263158" x="128.46491228070172" y="315.13157894736844" transform="rotate(45, 133.33333333333331, 320)"></rect><rect width="9.736842105263158" height="9.736842105263158" x="172.90935672514618" y="315.13157894736844" fill="hsl(261, 60%, 38%)" stroke="none" transform="rotate(45, 177.77777777777777, 320)"></rect><rect width="9.736842105263158" height="9.736842105263158" x="217.35380116959064" y="315.13157894736844" transform="rotate(45, 222.22222222222223, 320)"></rect><rect width="9.736842105263158" height="9.736842105263158" x="261.7982456140351" y="315.13157894736844" transform="rotate(45, 266.6666666666667, 320)"></rect><rect width="9.736842105263158" height="9.736842105263158" x="306.2426900584796" y="315.13157894736844" fill="hsl(261, 60%, 38%)" stroke="none" transform="rotate(45, 311.11111111111114, 320)"></rect><rect width="9.736842105263158" height="9.736842105263158" x="350.68713450292404" y="315.13157894736844" fill="hsl(261, 60%, 38%)" stroke="none" transform="rotate(45, 355.5555555555556, 320)"></rect><rect width="9.736842105263158" height="9.736842105263158" x="395.1315789473685" y="315.13157894736844" transform="rotate(45, 400.00000000000006, 320)"></rect><rect width="9.736842105263158" height="9.736842105263158" x="439.57602339181295" y="315.13157894736844" transform="rotate(45, 444.4444444444445, 320)"></rect><rect width="9.736842105263158" height="9.736842105263158" x="484.0204678362574" y="315.13157894736844" transform="rotate(45, 488.88888888888897, 320)"></rect><rect width="9.736842105263158" height="9.736842105263158" x="528.4649122807018" y="315.13157894736844" transform="rotate(45, 533.3333333333334, 320)"></rect><rect width="9.736842105263158" height="9.736842105263158" x="572.9093567251463" y="315.13157894736844" transform="rotate(45, 577.7777777777778, 320)"></rect><rect width="9.736842105263158" height="9.736842105263158" x="617.3538011695907" y="315.13157894736844" fill="hsl(261, 60%, 38%)" stroke="none" transform="rotate(45, 622.2222222222223, 320)"></rect><rect width="9.736842105263158" height="9.736842105263158" x="661.7982456140352" y="315.13157894736844" transform="rotate(45, 666.6666666666667, 320)"></rect><rect width="9.736842105263158" height="9.736842105263158" x="706.2426900584796" y="315.13157894736844" fill="hsl(261, 60%, 38%)" stroke="none" transform="rotate(45, 711.1111111111112, 320)"></rect><rect width="9.736842105263158" height="9.736842105263158" x="750.6871345029241" y="315.13157894736844" fill="hsl(261, 60%, 38%)" stroke="none" transform="rotate(45, 755.5555555555557, 320)"></rect><rect width="9.736842105263158" height="9.736842105263158" x="795.1315789473686" y="315.13157894736844" transform="rotate(45, 800.0000000000001, 320)"></rect><rect width="9.736842105263158" height="9.736842105263158" x="-4.868421052631579" y="395.13157894736844" transform="rotate(45, 0, 400)"></rect><rect width="9.736842105263158" height="9.736842105263158" x="39.57602339181287" y="395.13157894736844" transform="rotate(45, 44.44444444444444, 400)"></rect><rect width="9.736842105263158" height="9.736842105263158" x="84.02046783625731" y="395.13157894736844" fill="hsl(261, 60%, 38%)" stroke="none" transform="rotate(45, 88.88888888888889, 400)"></rect><rect width="9.736842105263158" height="9.736842105263158" x="128.46491228070172" y="395.13157894736844" transform="rotate(45, 133.33333333333331, 400)"></rect><rect width="9.736842105263158" height="9.736842105263158" x="172.90935672514618" y="395.13157894736844" transform="rotate(45, 177.77777777777777, 400)"></rect><rect width="9.736842105263158" height="9.736842105263158" x="217.35380116959064" y="395.13157894736844" transform="rotate(45, 222.22222222222223, 400)"></rect><rect width="9.736842105263158" height="9.736842105263158" x="261.7982456140351" y="395.13157894736844" transform="rotate(45, 266.6666666666667, 400)"></rect><rect width="9.736842105263158" height="9.736842105263158" x="306.2426900584796" y="395.13157894736844" fill="hsl(261, 60%, 38%)" stroke="none" transform="rotate(45, 311.11111111111114, 400)"></rect><rect width="9.736842105263158" height="9.736842105263158" x="350.68713450292404" y="395.13157894736844" transform="rotate(45, 355.5555555555556, 400)"></rect><rect width="9.736842105263158" height="9.736842105263158" x="395.1315789473685" y="395.13157894736844" fill="hsl(261, 60%, 38%)" stroke="none" transform="rotate(45, 400.00000000000006, 400)"></rect><rect width="9.736842105263158" height="9.736842105263158" x="439.57602339181295" y="395.13157894736844" transform="rotate(45, 444.4444444444445, 400)"></rect><rect width="9.736842105263158" height="9.736842105263158" x="484.0204678362574" y="395.13157894736844" transform="rotate(45, 488.88888888888897, 400)"></rect><rect width="9.736842105263158" height="9.736842105263158" x="528.4649122807018" y="395.13157894736844" transform="rotate(45, 533.3333333333334, 400)"></rect><rect width="9.736842105263158" height="9.736842105263158" x="572.9093567251463" y="395.13157894736844" transform="rotate(45, 577.7777777777778, 400)"></rect><rect width="9.736842105263158" height="9.736842105263158" x="617.3538011695907" y="395.13157894736844" transform="rotate(45, 622.2222222222223, 400)"></rect><rect width="9.736842105263158" height="9.736842105263158" x="661.7982456140352" y="395.13157894736844" transform="rotate(45, 666.6666666666667, 400)"></rect><rect width="9.736842105263158" height="9.736842105263158" x="706.2426900584796" y="395.13157894736844" fill="hsl(261, 60%, 38%)" stroke="none" transform="rotate(45, 711.1111111111112, 400)"></rect><rect width="9.736842105263158" height="9.736842105263158" x="750.6871345029241" y="395.13157894736844" transform="rotate(45, 755.5555555555557, 400)"></rect><rect width="9.736842105263158" height="9.736842105263158" x="795.1315789473686" y="395.13157894736844" transform="rotate(45, 800.0000000000001, 400)"></rect><rect width="9.736842105263158" height="9.736842105263158" x="-4.868421052631579" y="475.13157894736844" transform="rotate(45, 0, 480)"></rect><rect width="9.736842105263158" height="9.736842105263158" x="39.57602339181287" y="475.13157894736844" transform="rotate(45, 44.44444444444444, 480)"></rect><rect width="9.736842105263158" height="9.736842105263158" x="84.02046783625731" y="475.13157894736844" transform="rotate(45, 88.88888888888889, 480)"></rect><rect width="9.736842105263158" height="9.736842105263158" x="128.46491228070172" y="475.13157894736844" transform="rotate(45, 133.33333333333331, 480)"></rect><rect width="9.736842105263158" height="9.736842105263158" x="172.90935672514618" y="475.13157894736844" fill="hsl(261, 60%, 38%)" stroke="none" transform="rotate(45, 177.77777777777777, 480)"></rect><rect width="9.736842105263158" height="9.736842105263158" x="217.35380116959064" y="475.13157894736844" fill="hsl(261, 60%, 38%)" stroke="none" transform="rotate(45, 222.22222222222223, 480)"></rect><rect width="9.736842105263158" height="9.736842105263158" x="261.7982456140351" y="475.13157894736844" transform="rotate(45, 266.6666666666667, 480)"></rect><rect width="9.736842105263158" height="9.736842105263158" x="306.2426900584796" y="475.13157894736844" fill="hsl(261, 60%, 38%)" stroke="none" transform="rotate(45, 311.11111111111114, 480)"></rect><rect width="9.736842105263158" height="9.736842105263158" x="350.68713450292404" y="475.13157894736844" transform="rotate(45, 355.5555555555556, 480)"></rect><rect width="9.736842105263158" height="9.736842105263158" x="395.1315789473685" y="475.13157894736844" transform="rotate(45, 400.00000000000006, 480)"></rect><rect width="9.736842105263158" height="9.736842105263158" x="439.57602339181295" y="475.13157894736844" fill="hsl(261, 60%, 38%)" stroke="none" transform="rotate(45, 444.4444444444445, 480)"></rect><rect width="9.736842105263158" height="9.736842105263158" x="484.0204678362574" y="475.13157894736844" fill="hsl(261, 60%, 38%)" stroke="none" transform="rotate(45, 488.88888888888897, 480)"></rect><rect width="9.736842105263158" height="9.736842105263158" x="528.4649122807018" y="475.13157894736844" transform="rotate(45, 533.3333333333334, 480)"></rect><rect width="9.736842105263158" height="9.736842105263158" x="572.9093567251463" y="475.13157894736844" transform="rotate(45, 577.7777777777778, 480)"></rect><rect width="9.736842105263158" height="9.736842105263158" x="617.3538011695907" y="475.13157894736844" transform="rotate(45, 622.2222222222223, 480)"></rect><rect width="9.736842105263158" height="9.736842105263158" x="661.7982456140352" y="475.13157894736844" transform="rotate(45, 666.6666666666667, 480)"></rect><rect width="9.736842105263158" height="9.736842105263158" x="706.2426900584796" y="475.13157894736844" transform="rotate(45, 711.1111111111112, 480)"></rect><rect width="9.736842105263158" height="9.736842105263158" x="750.6871345029241" y="475.13157894736844" transform="rotate(45, 755.5555555555557, 480)"></rect><rect width="9.736842105263158" height="9.736842105263158" x="795.1315789473686" y="475.13157894736844" transform="rotate(45, 800.0000000000001, 480)"></rect><rect width="9.736842105263158" height="9.736842105263158" x="-4.868421052631579" y="555.1315789473684" transform="rotate(45, 0, 560)"></rect><rect width="9.736842105263158" height="9.736842105263158" x="39.57602339181287" y="555.1315789473684" fill="hsl(261, 60%, 38%)" stroke="none" transform="rotate(45, 44.44444444444444, 560)"></rect><rect width="9.736842105263158" height="9.736842105263158" x="84.02046783625731" y="555.1315789473684" fill="hsl(261, 60%, 38%)" stroke="none" transform="rotate(45, 88.88888888888889, 560)"></rect><rect width="9.736842105263158" height="9.736842105263158" x="128.46491228070172" y="555.1315789473684" transform="rotate(45, 133.33333333333331, 560)"></rect><rect width="9.736842105263158" height="9.736842105263158" x="172.90935672514618" y="555.1315789473684" fill="hsl(261, 60%, 38%)" stroke="none" transform="rotate(45, 177.77777777777777, 560)"></rect><rect width="9.736842105263158" height="9.736842105263158" x="217.35380116959064" y="555.1315789473684" transform="rotate(45, 222.22222222222223, 560)"></rect><rect width="9.736842105263158" height="9.736842105263158" x="261.7982456140351" y="555.1315789473684" fill="hsl(261, 60%, 38%)" stroke="none" transform="rotate(45, 266.6666666666667, 560)"></rect><rect width="9.736842105263158" height="9.736842105263158" x="306.2426900584796" y="555.1315789473684" fill="hsl(261, 60%, 38%)" stroke="none" transform="rotate(45, 311.11111111111114, 560)"></rect><rect width="9.736842105263158" height="9.736842105263158" x="350.68713450292404" y="555.1315789473684" fill="hsl(261, 60%, 38%)" stroke="none" transform="rotate(45, 355.5555555555556, 560)"></rect><rect width="9.736842105263158" height="9.736842105263158" x="395.1315789473685" y="555.1315789473684" transform="rotate(45, 400.00000000000006, 560)"></rect><rect width="9.736842105263158" height="9.736842105263158" x="439.57602339181295" y="555.1315789473684" transform="rotate(45, 444.4444444444445, 560)"></rect><rect width="9.736842105263158" height="9.736842105263158" x="484.0204678362574" y="555.1315789473684" transform="rotate(45, 488.88888888888897, 560)"></rect><rect width="9.736842105263158" height="9.736842105263158" x="528.4649122807018" y="555.1315789473684" fill="hsl(261, 60%, 38%)" stroke="none" transform="rotate(45, 533.3333333333334, 560)"></rect><rect width="9.736842105263158" height="9.736842105263158" x="572.9093567251463" y="555.1315789473684" fill="hsl(261, 60%, 38%)" stroke="none" transform="rotate(45, 577.7777777777778, 560)"></rect><rect width="9.736842105263158" height="9.736842105263158" x="617.3538011695907" y="555.1315789473684" fill="hsl(261, 60%, 38%)" stroke="none" transform="rotate(45, 622.2222222222223, 560)"></rect><rect width="9.736842105263158" height="9.736842105263158" x="661.7982456140352" y="555.1315789473684" fill="hsl(261, 60%, 38%)" stroke="none" transform="rotate(45, 666.6666666666667, 560)"></rect><rect width="9.736842105263158" height="9.736842105263158" x="706.2426900584796" y="555.1315789473684" transform="rotate(45, 711.1111111111112, 560)"></rect><rect width="9.736842105263158" height="9.736842105263158" x="750.6871345029241" y="555.1315789473684" transform="rotate(45, 755.5555555555557, 560)"></rect><rect width="9.736842105263158" height="9.736842105263158" x="795.1315789473686" y="555.1315789473684" transform="rotate(45, 800.0000000000001, 560)"></rect><rect width="9.736842105263158" height="9.736842105263158" x="-4.868421052631579" y="635.1315789473684" transform="rotate(45, 0, 640)"></rect><rect width="9.736842105263158" height="9.736842105263158" x="39.57602339181287" y="635.1315789473684" transform="rotate(45, 44.44444444444444, 640)"></rect><rect width="9.736842105263158" height="9.736842105263158" x="84.02046783625731" y="635.1315789473684" fill="hsl(261, 60%, 38%)" stroke="none" transform="rotate(45, 88.88888888888889, 640)"></rect><rect width="9.736842105263158" height="9.736842105263158" x="128.46491228070172" y="635.1315789473684" fill="hsl(261, 60%, 38%)" stroke="none" transform="rotate(45, 133.33333333333331, 640)"></rect><rect width="9.736842105263158" height="9.736842105263158" x="172.90935672514618" y="635.1315789473684" transform="rotate(45, 177.77777777777777, 640)"></rect><rect width="9.736842105263158" height="9.736842105263158" x="217.35380116959064" y="635.1315789473684" transform="rotate(45, 222.22222222222223, 640)"></rect><rect width="9.736842105263158" height="9.736842105263158" x="261.7982456140351" y="635.1315789473684" transform="rotate(45, 266.6666666666667, 640)"></rect><rect width="9.736842105263158" height="9.736842105263158" x="306.2426900584796" y="635.1315789473684" transform="rotate(45, 311.11111111111114, 640)"></rect><rect width="9.736842105263158" height="9.736842105263158" x="350.68713450292404" y="635.1315789473684" transform="rotate(45, 355.5555555555556, 640)"></rect><rect width="9.736842105263158" height="9.736842105263158" x="395.1315789473685" y="635.1315789473684" transform="rotate(45, 400.00000000000006, 640)"></rect><rect width="9.736842105263158" height="9.736842105263158" x="439.57602339181295" y="635.1315789473684" fill="hsl(261, 60%, 38%)" stroke="none" transform="rotate(45, 444.4444444444445, 640)"></rect><rect width="9.736842105263158" height="9.736842105263158" x="484.0204678362574" y="635.1315789473684" transform="rotate(45, 488.88888888888897, 640)"></rect><rect width="9.736842105263158" height="9.736842105263158" x="528.4649122807018" y="635.1315789473684" transform="rotate(45, 533.3333333333334, 640)"></rect><rect width="9.736842105263158" height="9.736842105263158" x="572.9093567251463" y="635.1315789473684" transform="rotate(45, 577.7777777777778, 640)"></rect><rect width="9.736842105263158" height="9.736842105263158" x="617.3538011695907" y="635.1315789473684" transform="rotate(45, 622.2222222222223, 640)"></rect><rect width="9.736842105263158" height="9.736842105263158" x="661.7982456140352" y="635.1315789473684" transform="rotate(45, 666.6666666666667, 640)"></rect><rect width="9.736842105263158" height="9.736842105263158" x="706.2426900584796" y="635.1315789473684" transform="rotate(45, 711.1111111111112, 640)"></rect><rect width="9.736842105263158" height="9.736842105263158" x="750.6871345029241" y="635.1315789473684" transform="rotate(45, 755.5555555555557, 640)"></rect><rect width="9.736842105263158" height="9.736842105263158" x="795.1315789473686" y="635.1315789473684" transform="rotate(45, 800.0000000000001, 640)"></rect><rect width="9.736842105263158" height="9.736842105263158" x="-4.868421052631579" y="715.1315789473684" transform="rotate(45, 0, 720)"></rect><rect width="9.736842105263158" height="9.736842105263158" x="39.57602339181287" y="715.1315789473684" transform="rotate(45, 44.44444444444444, 720)"></rect><rect width="9.736842105263158" height="9.736842105263158" x="84.02046783625731" y="715.1315789473684" transform="rotate(45, 88.88888888888889, 720)"></rect><rect width="9.736842105263158" height="9.736842105263158" x="128.46491228070172" y="715.1315789473684" transform="rotate(45, 133.33333333333331, 720)"></rect><rect width="9.736842105263158" height="9.736842105263158" x="172.90935672514618" y="715.1315789473684" fill="hsl(261, 60%, 38%)" stroke="none" transform="rotate(45, 177.77777777777777, 720)"></rect><rect width="9.736842105263158" height="9.736842105263158" x="217.35380116959064" y="715.1315789473684" fill="hsl(261, 60%, 38%)" stroke="none" transform="rotate(45, 222.22222222222223, 720)"></rect><rect width="9.736842105263158" height="9.736842105263158" x="261.7982456140351" y="715.1315789473684" transform="rotate(45, 266.6666666666667, 720)"></rect><rect width="9.736842105263158" height="9.736842105263158" x="306.2426900584796" y="715.1315789473684" transform="rotate(45, 311.11111111111114, 720)"></rect><rect width="9.736842105263158" height="9.736842105263158" x="350.68713450292404" y="715.1315789473684" transform="rotate(45, 355.5555555555556, 720)"></rect><rect width="9.736842105263158" height="9.736842105263158" x="395.1315789473685" y="715.1315789473684" transform="rotate(45, 400.00000000000006, 720)"></rect><rect width="9.736842105263158" height="9.736842105263158" x="439.57602339181295" y="715.1315789473684" fill="hsl(261, 60%, 38%)" stroke="none" transform="rotate(45, 444.4444444444445, 720)"></rect><rect width="9.736842105263158" height="9.736842105263158" x="484.0204678362574" y="715.1315789473684" transform="rotate(45, 488.88888888888897, 720)"></rect><rect width="9.736842105263158" height="9.736842105263158" x="528.4649122807018" y="715.1315789473684" transform="rotate(45, 533.3333333333334, 720)"></rect><rect width="9.736842105263158" height="9.736842105263158" x="572.9093567251463" y="715.1315789473684" transform="rotate(45, 577.7777777777778, 720)"></rect><rect width="9.736842105263158" height="9.736842105263158" x="617.3538011695907" y="715.1315789473684" transform="rotate(45, 622.2222222222223, 720)"></rect><rect width="9.736842105263158" height="9.736842105263158" x="661.7982456140352" y="715.1315789473684" fill="hsl(261, 60%, 38%)" stroke="none" transform="rotate(45, 666.6666666666667, 720)"></rect><rect width="9.736842105263158" height="9.736842105263158" x="706.2426900584796" y="715.1315789473684" transform="rotate(45, 711.1111111111112, 720)"></rect><rect width="9.736842105263158" height="9.736842105263158" x="750.6871345029241" y="715.1315789473684" transform="rotate(45, 755.5555555555557, 720)"></rect><rect width="9.736842105263158" height="9.736842105263158" x="795.1315789473686" y="715.1315789473684" transform="rotate(45, 800.0000000000001, 720)"></rect><rect width="9.736842105263158" height="9.736842105263158" x="-4.868421052631579" y="795.1315789473684" transform="rotate(45, 0, 800)"></rect><rect width="9.736842105263158" height="9.736842105263158" x="39.57602339181287" y="795.1315789473684" transform="rotate(45, 44.44444444444444, 800)"></rect><rect width="9.736842105263158" height="9.736842105263158" x="84.02046783625731" y="795.1315789473684" transform="rotate(45, 88.88888888888889, 800)"></rect><rect width="9.736842105263158" height="9.736842105263158" x="128.46491228070172" y="795.1315789473684" transform="rotate(45, 133.33333333333331, 800)"></rect><rect width="9.736842105263158" height="9.736842105263158" x="172.90935672514618" y="795.1315789473684" transform="rotate(45, 177.77777777777777, 800)"></rect><rect width="9.736842105263158" height="9.736842105263158" x="217.35380116959064" y="795.1315789473684" transform="rotate(45, 222.22222222222223, 800)"></rect><rect width="9.736842105263158" height="9.736842105263158" x="261.7982456140351" y="795.1315789473684" transform="rotate(45, 266.6666666666667, 800)"></rect><rect width="9.736842105263158" height="9.736842105263158" x="306.2426900584796" y="795.1315789473684" transform="rotate(45, 311.11111111111114, 800)"></rect><rect width="9.736842105263158" height="9.736842105263158" x="350.68713450292404" y="795.1315789473684" transform="rotate(45, 355.5555555555556, 800)"></rect><rect width="9.736842105263158" height="9.736842105263158" x="395.1315789473685" y="795.1315789473684" transform="rotate(45, 400.00000000000006, 800)"></rect><rect width="9.736842105263158" height="9.736842105263158" x="439.57602339181295" y="795.1315789473684" transform="rotate(45, 444.4444444444445, 800)"></rect><rect width="9.736842105263158" height="9.736842105263158" x="484.0204678362574" y="795.1315789473684" transform="rotate(45, 488.88888888888897, 800)"></rect><rect width="9.736842105263158" height="9.736842105263158" x="528.4649122807018" y="795.1315789473684" transform="rotate(45, 533.3333333333334, 800)"></rect><rect width="9.736842105263158" height="9.736842105263158" x="572.9093567251463" y="795.1315789473684" transform="rotate(45, 577.7777777777778, 800)"></rect><rect width="9.736842105263158" height="9.736842105263158" x="617.3538011695907" y="795.1315789473684" transform="rotate(45, 622.2222222222223, 800)"></rect><rect width="9.736842105263158" height="9.736842105263158" x="661.7982456140352" y="795.1315789473684" transform="rotate(45, 666.6666666666667, 800)"></rect><rect width="9.736842105263158" height="9.736842105263158" x="706.2426900584796" y="795.1315789473684" transform="rotate(45, 711.1111111111112, 800)"></rect><rect width="9.736842105263158" height="9.736842105263158" x="750.6871345029241" y="795.1315789473684" transform="rotate(45, 755.5555555555557, 800)"></rect><rect width="9.736842105263158" height="9.736842105263158" x="795.1315789473686" y="795.1315789473684" transform="rotate(45, 800.0000000000001, 800)"></rect></g></svg>